<mxfile host="65bd71144e">
    <diagram id="SnNYeeXVXQAJmao7dI92" name="ページ1">
        <mxGraphModel dx="905" dy="556" grid="1" gridSize="10" guides="1" tooltips="1" connect="1" arrows="1" fold="1" page="1" pageScale="1" pageWidth="827" pageHeight="1169" math="0" shadow="0">
            <root>
                <mxCell id="0"/>
                <mxCell id="1" parent="0"/>
                <mxCell id="2" value="&lt;font style=&quot;font-size: 19px;&quot;&gt;img-generator&lt;/font&gt;" style="html=1;verticalAlign=top;fillColor=none;" vertex="1" parent="1">
                    <mxGeometry x="170" y="110" width="640" height="510" as="geometry"/>
                </mxCell>
                <mxCell id="3" value="User" style="shape=umlActor;verticalLabelPosition=bottom;verticalAlign=top;html=1;fillColor=none;" vertex="1" parent="1">
                    <mxGeometry x="40" y="300" width="60" height="130" as="geometry"/>
                </mxCell>
                <mxCell id="4" value="画像をアップロードする" style="ellipse;whiteSpace=wrap;html=1;fillColor=none;" vertex="1" parent="1">
                    <mxGeometry x="220" y="230" width="180" height="80" as="geometry"/>
                </mxCell>
                <mxCell id="9" value="" style="endArrow=none;html=1;" edge="1" parent="1" source="4" target="3">
                    <mxGeometry width="50" height="50" relative="1" as="geometry">
                        <mxPoint x="370" y="410" as="sourcePoint"/>
                        <mxPoint x="420" y="360" as="targetPoint"/>
                    </mxGeometry>
                </mxCell>
                <mxCell id="10" value="ドラッグアンドドロップ&lt;br&gt;でアップロードする" style="ellipse;whiteSpace=wrap;html=1;fillColor=none;" vertex="1" parent="1">
                    <mxGeometry x="510" y="170" width="140" height="70" as="geometry"/>
                </mxCell>
                <mxCell id="11" value="Extends" style="endArrow=block;endSize=16;endFill=0;html=1;" edge="1" parent="1" source="10" target="4">
                    <mxGeometry width="160" relative="1" as="geometry">
                        <mxPoint x="310" y="380" as="sourcePoint"/>
                        <mxPoint x="470" y="380" as="targetPoint"/>
                    </mxGeometry>
                </mxCell>
                <mxCell id="12" value="エクスプローラーから&lt;br&gt;ファイル選択する" style="ellipse;whiteSpace=wrap;html=1;fillColor=none;" vertex="1" parent="1">
                    <mxGeometry x="530" y="250" width="140" height="70" as="geometry"/>
                </mxCell>
                <mxCell id="14" value="Extends" style="endArrow=block;endSize=16;endFill=0;html=1;" edge="1" parent="1" source="12" target="4">
                    <mxGeometry width="160" relative="1" as="geometry">
                        <mxPoint x="310" y="380" as="sourcePoint"/>
                        <mxPoint x="470" y="380" as="targetPoint"/>
                    </mxGeometry>
                </mxCell>
                <mxCell id="15" value="imgタグオプションを設定する" style="ellipse;whiteSpace=wrap;html=1;fontSize=12;fillColor=none;" vertex="1" parent="1">
                    <mxGeometry x="220" y="330" width="200" height="70" as="geometry"/>
                </mxCell>
                <mxCell id="16" value="" style="endArrow=none;html=1;fontSize=12;" edge="1" parent="1" source="15" target="3">
                    <mxGeometry width="50" height="50" relative="1" as="geometry">
                        <mxPoint x="260" y="390" as="sourcePoint"/>
                        <mxPoint x="420" y="340" as="targetPoint"/>
                    </mxGeometry>
                </mxCell>
                <mxCell id="17" value="srcのパスを設定する" style="ellipse;whiteSpace=wrap;html=1;fontSize=12;fillColor=none;" vertex="1" parent="1">
                    <mxGeometry x="520" y="330" width="140" height="40" as="geometry"/>
                </mxCell>
                <mxCell id="18" value="loadingを設定する" style="ellipse;whiteSpace=wrap;html=1;fontSize=12;fillColor=none;" vertex="1" parent="1">
                    <mxGeometry x="530" y="370" width="140" height="40" as="geometry"/>
                </mxCell>
                <mxCell id="19" value="fetchpriorityを設定する" style="ellipse;whiteSpace=wrap;html=1;fontSize=12;fillColor=none;" vertex="1" parent="1">
                    <mxGeometry x="500" y="410" width="140" height="40" as="geometry"/>
                </mxCell>
                <mxCell id="22" value="Extends" style="endArrow=block;endSize=16;endFill=0;html=1;fontSize=12;" edge="1" parent="1" source="17" target="15">
                    <mxGeometry width="160" relative="1" as="geometry">
                        <mxPoint x="310" y="370" as="sourcePoint"/>
                        <mxPoint x="470" y="370" as="targetPoint"/>
                    </mxGeometry>
                </mxCell>
                <mxCell id="24" value="Extends" style="endArrow=block;endSize=16;endFill=0;html=1;fontSize=12;entryX=0.997;entryY=0.691;entryDx=0;entryDy=0;entryPerimeter=0;" edge="1" parent="1" source="18" target="15">
                    <mxGeometry width="160" relative="1" as="geometry">
                        <mxPoint x="310" y="370" as="sourcePoint"/>
                        <mxPoint x="470" y="370" as="targetPoint"/>
                    </mxGeometry>
                </mxCell>
                <mxCell id="25" value="Extends" style="endArrow=block;endSize=16;endFill=0;html=1;fontSize=12;" edge="1" parent="1" source="19" target="15">
                    <mxGeometry width="160" relative="1" as="geometry">
                        <mxPoint x="310" y="370" as="sourcePoint"/>
                        <mxPoint x="470" y="370" as="targetPoint"/>
                    </mxGeometry>
                </mxCell>
                <mxCell id="26" value="alt文を選ぶ" style="ellipse;whiteSpace=wrap;html=1;fontSize=15;fillColor=none;" vertex="1" parent="1">
                    <mxGeometry x="230" y="420" width="140" height="70" as="geometry"/>
                </mxCell>
                <mxCell id="27" value="" style="endArrow=none;html=1;fontSize=12;" edge="1" parent="1" source="26" target="3">
                    <mxGeometry width="50" height="50" relative="1" as="geometry">
                        <mxPoint x="370" y="390" as="sourcePoint"/>
                        <mxPoint x="420" y="340" as="targetPoint"/>
                    </mxGeometry>
                </mxCell>
                <mxCell id="28" value="生成されたimgタグを&lt;br&gt;コピーする" style="ellipse;whiteSpace=wrap;html=1;fontSize=15;fillColor=none;" vertex="1" parent="1">
                    <mxGeometry x="210" y="515" width="210" height="70" as="geometry"/>
                </mxCell>
                <mxCell id="29" value="" style="endArrow=none;html=1;fontSize=15;" edge="1" parent="1" source="28" target="3">
                    <mxGeometry width="50" height="50" relative="1" as="geometry">
                        <mxPoint x="370" y="490" as="sourcePoint"/>
                        <mxPoint x="420" y="440" as="targetPoint"/>
                    </mxGeometry>
                </mxCell>
            </root>
        </mxGraphModel>
    </diagram>
</mxfile>